<svg xmlns="http://www.w3.org/2000/svg" xmlns:xlink="http://www.w3.org/1999/xlink" version="1.1" width="1000" height="1000" viewBox="0 0 1000 1000" xml:space="preserve">
<desc>Created with Fabric.js 3.5.0</desc>
<defs>
</defs>
<rect x="0" y="0" width="100%" height="100%" fill="#ffffff"/>
<g transform="matrix(0 -1.9665 1.9665 0 500.0087 499.9913)" id="743807">
<g style="" vector-effect="non-scaling-stroke">
		<g transform="matrix(1 0 0 1 0 0)">
<path style="stroke: none; stroke-width: 1; stroke-dasharray: none; stroke-linecap: butt; stroke-dashoffset: 0; stroke-linejoin: miter; stroke-miterlimit: 4; is-custom-font: none; font-file-url: none; fill: rgb(0,0,0); fill-rule: nonzero; opacity: 1;" transform=" translate(-256, -256)" d="M 0 0 h 512 v 512 H 0 z" stroke-linecap="round"/>
</g>
		<g transform="matrix(1 0 0 1 -5.3364 -3.6715)">
<path style="stroke: none; stroke-width: 1; stroke-dasharray: none; stroke-linecap: butt; stroke-dashoffset: 0; stroke-linejoin: miter; stroke-miterlimit: 4; is-custom-font: none; font-file-url: none; fill: rgb(255,255,255); fill-rule: nonzero; opacity: 1;" transform=" translate(-250.6636, -252.3285)" d="M 34.22 19.844 l -12.407 0.125 l 0.062 30 l 177.97 177.5 c 4.98 -8.957 12.884 -16.088 22.405 -20.064 L 34.22 19.844 z m 205.436 202.75 c -14.946 0 -26.844 11.93 -26.844 26.875 s 11.898 26.874 26.844 26.874 c 14.946 0 26.875 -11.93 26.875 -26.875 c 0 -14.947 -11.928 -26.876 -26.874 -26.876 z m 150.875 15.75 c -15.905 11.413 -31.637 18.404 -47.467 21.5 c 29.263 39.57 49.927 71.443 62.28 96 c 6.804 13.523 11.162 24.788 12.907 34.562 c 1.745 9.774 0.876 19.417 -5.813 25.906 c -6.688 6.49 -16.216 7.208 -26.125 5.532 c -9.908 -1.676 -21.394 -5.88 -35.187 -12.438 c -25.368 -12.058 -58.377 -32.294 -99.22 -60.906 c -2.646 16.347 -8.904 32.21 -19.06 47.53 c 64.07 43.58 163.496 83.783 246.468 88.783 c 3.614 -85.247 -42.328 -181.024 -88.782 -246.47 z m -105.655 16.562 c -2.375 19.668 -17.412 35.58 -36.656 39.28 c 3.07 11 4.776 21.816 5.093 32.44 c 44.728 31.797 80.314 53.785 105.812 65.905 c 12.888 6.127 23.263 9.684 30.313 10.876 c 7.05 1.193 9.577 -0.12 9.968 -0.5 c 0.392 -0.38 1.644 -2.46 0.438 -9.22 c -1.207 -6.756 -4.852 -16.84 -11.188 -29.436 c -12.4 -24.647 -34.88 -59.106 -67.5 -102.563 c -11.922 -0.288 -23.968 -2.61 -36.28 -6.78 z" stroke-linecap="round"/>
</g>
</g>
</g>
</svg>