<svg xmlns="http://www.w3.org/2000/svg" xmlns:xlink="http://www.w3.org/1999/xlink" version="1.1" width="1000" height="1000" viewBox="0 0 1000 1000" xml:space="preserve">
<rect x="0" y="0" width="100%" height="100%" fill="#ffffff" fill-opacity="0"/>
<g transform="matrix(10.5262 0 0 10.5262 512.8512 636.0296)" id="344653">
<g style="" vector-effect="non-scaling-stroke">
		<g transform="matrix(1 0 0 1 26.225 -38.7625)">
<path style="stroke: none; stroke-width: 1; stroke-dasharray: none; stroke-linecap: butt; stroke-dashoffset: 0; stroke-linejoin: miter; stroke-miterlimit: 4; is-custom-font: none; font-file-url: none; fill: rgb(0,0,0); fill-rule: nonzero; opacity: 1;" transform=" translate(-76.225, -23.7375)" d="M 75.8 18.9 L 70.6 24 l 5.4 5.4 l 5.1 -5.1 c 1 -1 1 -2.7 0 -3.7 l -1.7 -1.7 C 78.4 17.8 76.8 17.8 75.8 18.9 z" stroke-linecap="round"/>
</g>
		<g transform="matrix(1 0 0 1 15.85 -28.45)">
<path style="stroke: none; stroke-width: 1; stroke-dasharray: none; stroke-linecap: butt; stroke-dashoffset: 0; stroke-linejoin: miter; stroke-miterlimit: 4; is-custom-font: none; font-file-url: none; fill: rgb(0,0,0); fill-rule: nonzero; opacity: 1;" transform=" translate(-65.85, -34.05)" d="M 93 21.4 c -0.1 -0.2 -0.3 -0.3 -0.5 -0.3 c -0.2 0 -0.5 0.1 -0.5 0.4 c -0.6 2.7 -2.5 8.2 -7.9 10.9 c -1.1 0.5 -2.3 0.8 -3.4 0.8 c -2 0 -4.1 -0.8 -5.6 -2.3 l -6.1 -6.1 c -2.4 -2.4 -3 -6 -1.5 -9 c 2.7 -5.4 8.2 -7.2 10.9 -7.9 c 0.5 -0.1 0.6 -0.8 0.1 -1 c -1.9 -0.8 -5.4 -2 -9.9 -2 c -5.9 0 -13.6 2 -21.5 9.6 l 0 0 c -0.1 0.1 -0.3 0.3 -0.4 0.4 c -0.1 0.1 -0.3 0.3 -0.4 0.4 l 0 0 c -13.3 14 -9.5 27 -7.6 31.4 c 0.1 0.2 0.3 0.3 0.5 0.3 c 0.2 0 0.5 -0.1 0.5 -0.4 c 0.6 -2.7 2.5 -8.2 7.9 -10.9 c 1.1 -0.5 2.3 -0.8 3.4 -0.8 c 2 0 4.1 0.8 5.6 2.3 l 6.1 6.1 c 2.4 2.4 3 6 1.5 9 c -2.7 5.4 -8.2 7.2 -10.9 7.9 c -0.5 0.1 -0.6 0.8 -0.1 1 c 1.9 0.8 5.4 2 9.9 2 c 5.9 0 13.6 -2 21.5 -9.6 l 0 0 c 0.1 -0.1 0.3 -0.3 0.4 -0.4 c 0.1 -0.1 0.3 -0.3 0.4 -0.4 l 0 0 C 98.7 38.9 94.9 25.8 93 21.4 z M 67.6 35.8 c -0.9 0.9 -2.5 0.9 -3.4 0 s -0.9 -2.5 0 -3.4 c 0.9 -0.9 2.5 -0.9 3.4 0 C 68.5 33.4 68.5 34.9 67.6 35.8 z" stroke-linecap="round"/>
</g>
		<g transform="matrix(1 0 0 1 -30.775 18.15)">
<path style="stroke: none; stroke-width: 1; stroke-dasharray: none; stroke-linecap: butt; stroke-dashoffset: 0; stroke-linejoin: miter; stroke-miterlimit: 4; is-custom-font: none; font-file-url: none; fill: rgb(0,0,0); fill-rule: nonzero; opacity: 1;" transform=" translate(-19.225, -80.65)" d="M 23.2 70.7 c -0.3 -0.3 -0.7 -0.5 -1.1 -0.5 c -0.4 0 -0.8 0.2 -1.1 0.5 c -0.6 0.6 -0.6 1.6 0 2.2 l 0.4 0.4 L 8.9 85.7 l 5.4 5.4 l 12.4 -12.4 l 0.2 0.2 c 0.3 0.3 0.7 0.5 1.1 0.5 c 0.4 0 0.8 -0.2 1.1 -0.5 c 0.6 -0.6 0.6 -1.6 0 -2.2 L 23.2 70.7 z" stroke-linecap="round"/>
</g>
		<g transform="matrix(0.7071 -0.7071 0.7071 0.7071 -7.0461 -5.4277)">
<rect style="stroke: none; stroke-width: 1; stroke-dasharray: none; stroke-linecap: butt; stroke-dashoffset: 0; stroke-linejoin: miter; stroke-miterlimit: 4; is-custom-font: none; font-file-url: none; fill: rgb(0,0,0); fill-rule: nonzero; opacity: 1;" x="-21.95" y="-3.8" rx="0" ry="0" width="43.9" height="7.6"/>
</g>
		<g transform="matrix(1 0 0 1 -40.975 28.475)">
<path style="stroke: none; stroke-width: 1; stroke-dasharray: none; stroke-linecap: butt; stroke-dashoffset: 0; stroke-linejoin: miter; stroke-miterlimit: 4; is-custom-font: none; font-file-url: none; fill: rgb(0,0,0); fill-rule: nonzero; opacity: 1;" transform=" translate(-9.025, -90.975)" d="M 7.7 86.9 l -2 2 c -1 1 -1 2.7 0 3.7 l 1.7 1.7 c 1 1 2.7 1 3.7 0 l 2 -2 l 0 0 L 7.7 86.9 z" stroke-linecap="round"/>
</g>
</g>
</g>
</svg>